<svg id="Capa_1" enable-background="new 0 0 512 512" height="512" viewBox="0 0 512 512" width="512" xmlns="http://www.w3.org/2000/svg"><g><g><path d="m512 224-154.93 139.8h-202.14l-154.93-139.8 80-60h352z" fill="#e43135"/></g><path d="m512 224-154.93 139.8h-101.07v-199.8h176z" fill="#b12629"/><path d="m432 0v385.38l-176-2.67-176-2.68v-380.03z" fill="#28e7ef"/><path d="m432 0v385.38l-176-2.67v-382.71z" fill="#1cace7"/><path d="m0 224 170.667 128v11.803l-170.667 116.197z" fill="#fd6b53"/><path d="m284.43 130.72 34.94 4.97-4.23 29.7-20.11-2.86 2.86 20.11-29.7 4.23-4.97-34.94-7.22-7.22-7.22 7.22-4.97 34.94-29.7-4.23 2.86-20.11-20.11 2.86-4.23-29.7 34.94-4.97 7.22-7.22-7.22-7.22-34.94-4.97 4.23-29.7 20.11 2.86-2.86-20.11 29.7-4.23 4.97 34.94 7.22 7.22 7.22-7.22 4.97-34.94 29.7 4.23-2.86 20.11 20.11-2.86 4.23 29.7-34.94 4.97-7.22 7.22z" fill="#f0f7ff"/><path d="m284.43 130.72 34.94 4.97-4.23 29.7-20.11-2.86 2.86 20.11-29.7 4.23-4.97-34.94-7.22-7.22v-42.42l7.22-7.22 4.97-34.94 29.7 4.23-2.86 20.11 20.11-2.86 4.23 29.7-34.94 4.97-7.22 7.22z" fill="#dfe7f4"/><path d="m154.93 210.88h202.14v30h-202.14z" fill="#506da4"/><path d="m154.93 271.12h202.14v30h-202.14z" fill="#506da4"/><path d="m256 210.88h101.07v30h-101.07z" fill="#2a4979"/><path d="m256 271.12h101.07v30h-101.07z" fill="#2a4979"/><path d="m512 224-170.667 128v11.803l170.667 116.197z" fill="#e43135"/><path d="m512 480v32h-512v-32l170.67-128h170.66z" fill="#e43135"/><path d="m512 480v32h-256v-160h85.33z" fill="#b12629"/></g></svg>