<svg id="Capa_1" enable-background="new 0 0 510 510" height="512" viewBox="0 0 510 510" width="512" xmlns="http://www.w3.org/2000/svg" xmlns:xlink="http://www.w3.org/1999/xlink"><linearGradient id="lg1"><stop offset="0" stop-color="#fd8087"/><stop offset=".5213" stop-color="#fb2b3a"/><stop offset="1" stop-color="#d90d80"/></linearGradient><linearGradient id="SVGID_1_" gradientUnits="userSpaceOnUse" x1="203.396" x2="453.642" xlink:href="#lg1" y1="58.127" y2="58.127"/><linearGradient id="SVGID_2_" gradientUnits="userSpaceOnUse" x1="44.154" x2="399.636" xlink:href="#lg1" y1="58.125" y2="58.125"/><linearGradient id="SVGID_3_" gradientUnits="userSpaceOnUse" x1="219.645" x2="300.766" y1="111.592" y2="111.592"><stop offset="0" stop-color="#814aa0"/><stop offset="1" stop-color="#192a7d"/></linearGradient><linearGradient id="lg2"><stop offset="0" stop-color="#eaf6ff"/><stop offset=".5213" stop-color="#d8ecfe"/><stop offset="1" stop-color="#b3dafe"/></linearGradient><linearGradient id="SVGID_4_" gradientUnits="userSpaceOnUse" x1="-4" x2="134.161" xlink:href="#lg2" y1="290.24" y2="290.24"/><linearGradient id="SVGID_5_" gradientUnits="userSpaceOnUse" x1="-19" x2="76.336" xlink:href="#lg2" y1="252.84" y2="252.84"/><linearGradient id="SVGID_6_" gradientUnits="userSpaceOnUse" x1="340.5" x2="506.815" xlink:href="#lg2" y1="290.24" y2="290.24"/><linearGradient id="SVGID_7_" gradientUnits="userSpaceOnUse" x1="390" x2="467.502" xlink:href="#lg2" y1="252.85" y2="252.85"/><linearGradient id="SVGID_8_" gradientUnits="userSpaceOnUse" x1="267.5" x2="396" xlink:href="#lg2" y1="224.297" y2="224.297"/><linearGradient id="SVGID_9_" gradientUnits="userSpaceOnUse" x1="284.5" x2="358.333" xlink:href="#lg2" y1="200.386" y2="200.386"/><linearGradient id="SVGID_10_" gradientUnits="userSpaceOnUse" x1="-24.156" x2="558.258" xlink:href="#lg2" y1="355.254" y2="355.254"/><linearGradient id="SVGID_11_" gradientUnits="userSpaceOnUse" x1="-225.832" x2="308.194" xlink:href="#lg2" y1="319.871" y2="319.871"/><linearGradient id="SVGID_12_" gradientUnits="userSpaceOnUse" x1="-225.832" x2="308.194" xlink:href="#lg2" y1="435.738" y2="435.738"/><linearGradient id="SVGID_13_" gradientUnits="userSpaceOnUse" x1="-225.832" x2="308.194" xlink:href="#lg2" y1="355.254" y2="355.254"/><g><path d="m240.411 32.627v63.688c0 8.003 5.258 15.106 12.95 17.313 39.716 11.398 76.535-18.358 115.878-12.214 11.025 1.722 21.032-6.628 21.032-17.786v-63.688c0-8.003-5.258-15.106-12.95-17.313-39.713-11.397-76.532 18.36-115.878 12.214-11.024-1.722-21.032 6.628-21.032 17.786z" fill="url(#SVGID_1_)"/><path d="m377.321 2.626c-9.883-2.836-19.586-3.122-29.194-2.049 1.391.303 2.785.647 4.183 1.049 7.692 2.207 12.95 9.311 12.95 17.313v63.688c0 11.158-10.007 19.508-21.032 17.786-29.552-4.615-57.68 11.023-86.68 14.264 38.126 8.291 73.734-19.192 111.691-13.264 11.025 1.722 21.032-6.628 21.032-17.786v-63.687c0-8.003-5.258-15.107-12.95-17.314z" fill="url(#SVGID_2_)"/><path d="m247.5 215.471c-6.904 0-12.5-5.596-12.5-12.5v-182.758c0-6.904 5.596-12.5 12.5-12.5 6.904 0 12.5 5.596 12.5 12.5v182.758c0 6.904-5.596 12.5-12.5 12.5z" fill="url(#SVGID_3_)"/><g><path d="m152.401 229.107-128.828 126.646 6.546-19.846c3.587-10.887 3.98-22.327 1.464-33.074-1.877-8.076-5.401-15.754-10.436-22.547-.089-.116-.171-.239-.267-.349-.006-.007-.006-.007-.013-.013-2.362-3.957 7.331-18.478 22.246-33.14s29.599-24.106 33.515-21.677l.013.013c.108.097.23.182.344.273 15.638 12.008 36.296 15.87 55.459 9.92z" fill="url(#SVGID_4_)"/><path d="m76.987 225.393c3.285 3.342-6.547 18.343-21.967 33.502s-30.587 24.733-33.872 21.391c-.089-.116-.171-.239-.267-.349-.006-.007-.006-.007-.013-.013-2.362-3.957 7.331-18.478 22.246-33.14s29.599-24.106 33.515-21.677l.013.013c.109.098.23.182.345.273z" fill="url(#SVGID_5_)"/></g><g><path d="m488.904 356.183-126.645-128.828 19.846 6.546c10.887 3.587 22.327 3.98 33.074 1.464 8.076-1.877 15.754-5.401 22.547-10.436.116-.089.239-.171.349-.267.007-.006.007-.006.013-.013 3.957-2.362 18.478 7.331 33.14 22.246s24.106 29.599 21.677 33.515c-.006.006-.006.006-.013.013-.097.108-.182.23-.273.344-12.008 15.638-15.87 36.296-9.92 55.459z" fill="url(#SVGID_6_)"/><path d="m492.618 280.769c-3.342 3.285-18.343-6.547-33.502-21.967s-24.733-30.587-21.391-33.872c.116-.089.239-.171.349-.267.007-.006.007-.006.013-.013 3.957-2.362 18.478 7.331 33.14 22.246s24.106 29.599 21.677 33.515c-.006.006-.006.006-.013.013-.097.109-.182.231-.273.345z" fill="url(#SVGID_7_)"/></g><g><path d="m405.144 258.942-122.549-41.79 14.817-2.189c8.127-1.204 15.581-4.631 21.655-9.698 4.569-3.799 8.354-8.526 11.086-13.935.046-.094.098-.187.138-.283.002-.006.002-.006.004-.012 1.775-2.785 14.193-1.246 28.381 3.592s24.959 11.207 24.663 14.496c-.002.006-.002.006-.004.012-.027.101-.043.206-.064.308-2.662 13.878 1.507 28.352 11.481 38.713z" fill="url(#SVGID_8_)"/><path d="m383.27 209.443c-1.084 3.179-13.854 1.706-28.523-3.296s-25.679-11.638-24.595-14.817c.046-.094.098-.187.138-.283.002-.006.002-.006.004-.012 1.775-2.785 14.193-1.246 28.381 3.592s24.959 11.207 24.663 14.496c-.002.006-.002.006-.004.012-.027.1-.042.205-.064.308z" fill="url(#SVGID_9_)"/></g><path d="m255 200.507c-140.833 0-255 114.167-255 255 0 9.125.484 18.137 1.423 27.013 1.651 15.596 14.71 27.48 30.393 27.48h446.369c15.683 0 28.742-11.884 30.392-27.48.939-8.876 1.423-17.887 1.423-27.013 0-140.832-114.167-255-255-255z" fill="url(#SVGID_10_)"/><g><circle cx="231.029" cy="319.871" fill="url(#SVGID_11_)" r="36.905"/><circle cx="98.931" cy="435.738" fill="url(#SVGID_12_)" r="58.174"/><path d="m255 200.507c-6.735 0-13.407.266-20.01.778 58.154 4.514 110.827 28.544 151.499 65.538 4.17 3.793 1.403 10.667-4.234 10.654-.06 0-.119 0-.179 0-42.955 0-77.776 34.822-77.776 77.776 0 39.174 28.966 71.569 66.645 76.971-6.289 6.935-9.977 16.271-9.522 26.471.853 19.148 16.624 34.652 35.782 35.201 20.878.599 37.99-16.147 37.99-36.89 0-6.862-1.874-13.285-5.138-18.787-4.861-8.194-3.386-18.551 3.727-24.888.599-.533 1.189-1.076 1.771-1.627 11.492-10.89 30.48-3.807 32.445 11.904 1.307 10.449 1.981 21.095 1.981 31.898 0 9.125-.484 18.137-1.423 27.013-1.651 15.596-14.71 27.48-30.392 27.48h40.02c15.683 0 28.742-11.884 30.392-27.48.939-8.876 1.423-17.888 1.423-27.013-.001-140.831-114.168-254.999-255.001-254.999z" fill="url(#SVGID_13_)"/></g></g></svg>